<?xml version="1.0" encoding="UTF-8"?><svg id="Capa_2" xmlns="http://www.w3.org/2000/svg" xmlns:xlink="http://www.w3.org/1999/xlink" viewBox="0 0 328.97 116.93"><defs><style>.cls-1{fill:none;}.cls-2{clip-path:url(#clippath);}.cls-3{fill:#4cb6ac;}</style><clipPath id="clippath"><rect class="cls-1" width="328.97" height="116.93"/></clipPath></defs><g id="Capa_1-2"><g class="cls-2"><path class="cls-3" d="m55.5,66.41c9.68-7.6,14.67-18.59,20.01-29.22,3.85-7.66,9.05-14.39,15.72-19.89.24-.19.92-.71,1.87-1.43-3.55-2.24-7.39-4.06-11.46-5.37-1.78,5.28-2.93,11.03-5.34,15.33-4.57,8.16-13.38,12.92-21.01,17.78-7.67,4.89-15.56,10.04-21.76,16.49-3.44,3.57-6.49,7.43-8.65,11.91-1.76,3.63-1.99,7.19-2.62,10.97.83,1.48,1.75,2.9,2.72,4.29,8.89-8.83,20.79-13.22,30.53-20.87Z"/><path class="cls-3" d="m103.56,31.55c-5.28,9.67-9.84,20.31-18.69,27.35-9.73,7.74-21.99,8.13-32.56,13.76-5.32,2.83-10.67,7.22-14.45,11.89-.48.59-3.75,5.38-6.95,9.76,9.09,8.97,21.56,14.52,35.33,14.52,27.82,0,50.36-22.55,50.36-50.36,0-11.6-3.93-22.28-10.53-30.8-.87,1.14-1.7,2.39-2.52,3.89Z"/><path class="cls-3" d="m19.07,47.83c6.47-4.14,10.81-8.92,13.27-14.61,3.14-7.24,6.16-13.78,10.75-19.49-13.51,7-23.43,19.93-26.34,35.35.83-.41,1.63-.82,2.31-1.25Z"/><path class="cls-3" d="m53.78,9.65c-4.95,4.52-9.4,9.44-12.06,12.31-5.66,6.1-9.05,13.36-12.58,21.52-2.47,5.7-6.94,10.68-13.26,14.84,0,.05,0,.09,0,.14,0,6.33,1.18,12.38,3.31,17.95,1.66-12.17,6.73-23.09,15.02-32.17,7.4-8.11,17.59-12.58,27.03-17.76,8.08-4.43,14.4-9.41,19.8-16.18-4.68-1.44-9.65-2.21-14.8-2.21-4.3,0-8.47.54-12.46,1.56Z"/><path class="cls-3" d="m140.99,18.28h-7.46v20.95h-3.84v-20.95h-7.46v-3.41h18.77v3.41Z"/><path class="cls-3" d="m154.3,39.54c-7.32,0-12.64-5.25-12.64-12.53s5.32-12.46,12.64-12.46c6.55,0,11.48,4.12,12.43,10.1h-3.94c-.88-3.87-4.12-6.58-8.48-6.58-5.07,0-8.73,3.73-8.73,8.94s3.66,9.01,8.73,9.01c4.33,0,7.6-2.75,8.48-6.65h3.94c-.91,6.02-5.88,10.17-12.43,10.17Z"/><path class="cls-3" d="m174.48,39.23h-3.84V14.86h3.84v24.36Z"/><path class="cls-3" d="m196.34,18.28h-7.46v20.95h-3.84v-20.95h-7.46v-3.41h18.77v3.41Z"/><path class="cls-3" d="m135.68,69.7c-7.32,0-12.64-5.25-12.64-12.53s5.32-12.46,12.64-12.46c6.55,0,11.48,4.12,12.43,10.1h-3.94c-.88-3.87-4.12-6.58-8.48-6.58-5.07,0-8.73,3.73-8.73,8.94s3.66,9.01,8.73,9.01c4.33,0,7.6-2.75,8.48-6.65h3.94c-.91,6.02-5.88,10.17-12.43,10.17Z"/><path class="cls-3" d="m167.89,65.96v3.41h-15.88v-24.36h3.84v20.95h12.04Z"/><path class="cls-3" d="m193.7,57.16c0,7.29-5.32,12.53-12.67,12.53s-12.64-5.25-12.64-12.53,5.32-12.46,12.64-12.46,12.67,5.25,12.67,12.46Zm-21.41,0c0,5.21,3.66,9.01,8.73,9.01s8.77-3.8,8.77-9.01-3.66-8.94-8.77-8.94-8.73,3.73-8.73,8.94Z"/><path class="cls-3" d="m216.2,60.44c0,5.53-3.87,9.26-9.54,9.26s-9.54-3.73-9.54-9.26v-15.42h3.84v15.24c0,3.56,2.25,5.91,5.7,5.91s5.7-2.36,5.7-5.91v-15.24h3.84v15.42Z"/><path class="cls-3" d="m241.34,57.16c0,7.22-5.1,12.22-12.5,12.22h-7.99v-24.36h7.99c7.39,0,12.5,5,12.5,12.15Zm-3.91-.03c0-5.18-3.52-8.7-8.63-8.7h-4.12v17.53h4.12c5.1,0,8.63-3.59,8.63-8.84Z"/><path class="cls-3" d="m141.2,82.49h-3.73c-.11-2.82-2.08-4.51-5.14-4.51-2.85,0-4.86,1.44-4.86,3.8,0,6.06,14.36,1.44,14.36,10.77,0,4.51-3.91,7.29-9.51,7.29s-9.33-3.2-9.47-7.96h3.84c.04,2.78,2.15,4.82,5.81,4.82,3.2,0,5.42-1.58,5.42-4.01,0-6.06-14.36-1.62-14.36-10.7,0-4.4,3.63-7.15,8.87-7.15s8.66,2.96,8.77,7.64Z"/><path class="cls-3" d="m169.79,87.31c0,7.29-5.32,12.53-12.67,12.53s-12.64-5.25-12.64-12.53,5.32-12.46,12.64-12.46,12.67,5.25,12.67,12.46Zm-21.41,0c0,5.21,3.66,9.01,8.73,9.01s8.77-3.8,8.77-9.01-3.66-8.94-8.77-8.94-8.73,3.73-8.73,8.94Z"/><path class="cls-3" d="m189.58,96.12v3.41h-15.88v-24.36h3.84v20.95h12.04Z"/><path class="cls-3" d="m210.35,90.59c0,5.53-3.87,9.26-9.54,9.26s-9.54-3.73-9.54-9.26v-15.42h3.84v15.24c0,3.56,2.25,5.91,5.7,5.91s5.7-2.36,5.7-5.91v-15.24h3.84v15.42Z"/><path class="cls-3" d="m231.73,78.58h-7.46v20.95h-3.84v-20.95h-7.46v-3.41h18.77v3.41Z"/><path class="cls-3" d="m238.66,99.53h-3.84v-24.36h3.84v24.36Z"/><path class="cls-3" d="m267.89,87.31c0,7.29-5.32,12.53-12.67,12.53s-12.64-5.25-12.64-12.53,5.32-12.46,12.64-12.46,12.67,5.25,12.67,12.46Zm-21.41,0c0,5.21,3.66,9.01,8.73,9.01s8.77-3.8,8.77-9.01-3.66-8.94-8.77-8.94-8.73,3.73-8.73,8.94Z"/><path class="cls-3" d="m271.55,84.11c0-5.53,3.87-9.26,9.54-9.26s9.54,3.73,9.54,9.26v15.42h-3.84v-15.21c0-3.59-2.25-5.95-5.7-5.95s-5.7,2.36-5.7,5.95v15.21h-3.84v-15.42Z"/><path class="cls-3" d="m312.46,82.49h-3.73c-.11-2.82-2.08-4.51-5.14-4.51-2.85,0-4.86,1.44-4.86,3.8,0,6.06,14.36,1.44,14.36,10.77,0,4.51-3.91,7.29-9.51,7.29s-9.33-3.2-9.47-7.96h3.84c.03,2.78,2.15,4.82,5.81,4.82,3.2,0,5.42-1.58,5.42-4.01,0-6.06-14.36-1.62-14.36-10.7,0-4.4,3.63-7.15,8.87-7.15s8.66,2.96,8.77,7.64Z"/></g></g></svg>